<svg xmlns="http://www.w3.org/2000/svg" width="32.687" height="38" viewBox="0 0 32.687 38">
  <defs>
    <style>
      .cls-1 {
        fill: #fff;
        fill-rule: evenodd;
      }
    </style>
  </defs>
  <path id="Bag" class="cls-1" d="M638.987,2386.08l-2.634-21.12a2.362,2.362,0,0,0-2.338-2.09h-4.063v-2.43a7.3,7.3,0,1,0-14.6,0v2.43H611.29a2.364,2.364,0,0,0-2.338,2.09l-2.632,21.12a2.324,2.324,0,0,0-.019.3v2.25a2.365,2.365,0,0,0,2.357,2.38h27.99a2.365,2.365,0,0,0,2.357-2.38v-2.25A2.516,2.516,0,0,0,638.987,2386.08Zm-21.277-25.64a4.944,4.944,0,1,1,9.886,0v2.43H617.71v-2.43Zm-9.052,28.19v-1.61h20.115a0.794,0.794,0,0,0,.786-0.8,0.786,0.786,0,0,0-.786-0.79h-20l2.514-20.18h4.063v1.68a4.01,4.01,0,1,0,2.548,7.6,0.793,0.793,0,0,0,.467-1.02,0.784,0.784,0,0,0-1.008-.47,2.334,2.334,0,0,1-.828.15,2.431,2.431,0,0,1-1.179-4.54v2.11a1.179,1.179,0,1,0,2.357,0v-2.11a2.437,2.437,0,0,1,1.224,2.11,0.786,0.786,0,1,0,1.571,0,4.012,4.012,0,0,0-2.795-3.83v-1.68H627.6v1.68a4.01,4.01,0,1,0,2.548,7.6,0.794,0.794,0,0,0,.467-1.02,0.784,0.784,0,0,0-1.008-.47,2.341,2.341,0,0,1-.83.15,2.43,2.43,0,0,1-1.177-4.54v2.11a1.178,1.178,0,1,0,2.356,0v-2.11a2.437,2.437,0,0,1,1.224,2.11,0.786,0.786,0,1,0,1.572,0,4.013,4.013,0,0,0-2.8-3.83v-1.68h4.063l2.515,20.18h-3.579a0.786,0.786,0,0,0-.786.79,0.794,0.794,0,0,0,.786.8h3.7v1.61h-27.99Z" transform="translate(-606.313 -2353)"/>
</svg>
